<?xml version="1.0" encoding="UTF-8"?>
<!DOCTYPE svg  PUBLIC '-//W3C//DTD SVG 1.1//EN'  'http://www.w3.org/Graphics/SVG/1.1/DTD/svg11.dtd'>
<svg enable-background="new 0 0 610 110" version="1.1" viewBox="0 0 610 110" xml:space="preserve" xmlns="http://www.w3.org/2000/svg" xmlns:xlink="http://www.w3.org/1999/xlink">
<polygon points="133.77 29.319 144.62 29.319 156.29 66.345 167.97 29.319 178.56 29.319 160.5 82.27 151.83 82.27" fill="#fff"/>
		<defs>
			<rect id="am" x="1" y="1" width="607.94" height="108.14"/>
		</defs>
		<clipPath id="ab">
			<use overflow="visible" xlink:href="#am"/>
		</clipPath>
		<path d="m175.37 70.326v-0.147c0-8.786 5.68-12.846 13.782-12.846 3.445 0 5.935 0.677 8.359 1.652v-0.675c0-4.731-2.487-7.359-7.338-7.359-3.701 0-6.317 0.825-9.445 2.178l-2.424-8.713c3.766-1.953 7.466-3.229 13.272-3.229 5.296 0 9.125 1.653 11.549 4.506 2.553 3.004 3.701 7.436 3.701 12.844v23.354h-9.38v-4.354c-2.36 3.079-5.616 5.106-10.337 5.106-6.443 1e-3 -11.739-4.355-11.739-12.317m22.269-2.627v-2.027c-1.66-0.904-3.829-1.503-6.191-1.503-4.146 0-6.698 1.954-6.698 5.558v0.151c0 3.078 2.168 4.883 5.294 4.883 4.532-2e-3 7.595-2.932 7.595-7.062" clip-path="url(#ab)" fill="#fff"/>
		<defs>
			<rect id="q" x="1" y="1" width="607.94" height="108.14"/>
		</defs>
		<clipPath id="f">
			<use overflow="visible" xlink:href="#q"/>
		</clipPath>
		<rect x="213.07" y="27.067" width="9.699" height="54.828" clip-path="url(#f)" fill="#fff"/>
		<defs>
			<rect id="e" x="1" y="1" width="607.94" height="108.14"/>
		</defs>
		<clipPath id="d">
			<use overflow="visible" xlink:href="#e"/>
		</clipPath>
		<path d="m229.08 67.699v-26.062h9.699v22.456c0 5.408 2.17 8.188 5.87 8.188 3.703 0 6.063-2.78 6.063-8.188v-22.456h9.699v40.257h-9.699v-5.706c-2.234 3.377-5.107 6.456-10.018 6.456-7.339 0-11.614-5.707-11.614-14.945" clip-path="url(#d)" fill="#fff"/>
		<defs>
			<rect id="c" x="1" y="1" width="607.94" height="108.14"/>
		</defs>
		<clipPath id="b">
			<use overflow="visible" xlink:href="#c"/>
		</clipPath>
		<path d="m264.87 61.992v-0.149c0-11.494 6.955-20.956 16.909-20.956 11.421 0 16.657 10.44 16.657 21.857 0 0.9-0.065 1.951-0.127 3.003h-23.803c0.957 5.181 4.019 7.89 8.357 7.89 3.255 0 5.616-1.206 8.296-4.136l5.55 5.784c-3.188 4.655-7.783 7.512-13.971 7.512-10.274 0-17.868-8.49-17.868-20.805m24.122-3.38c-0.575-5.107-3.127-8.562-7.212-8.562-4.019 0-6.635 3.379-7.401 8.562h14.613z" clip-path="url(#b)" fill="#fff"/>
		<defs>
			<rect id="a" x="1" y="1" width="607.94" height="108.14"/>
		</defs>
		<clipPath id="aw">
			<use overflow="visible" xlink:href="#a"/>
		</clipPath>
		<path d="m304.75 28.569h3.891v5.032h-3.891v-5.032zm0.383 15.021h3.125v38.305h-3.125v-38.305z" clip-path="url(#aw)" fill="#fff"/>
		<defs>
			<rect id="av" x="1" y="1" width="607.94" height="108.14"/>
		</defs>
		<clipPath id="au">
			<use overflow="visible" xlink:href="#av"/>
		</clipPath>
		<path d="m318.02 43.59h3.126v6.834c2.107-3.979 5.043-7.735 10.85-7.735 5.679 0 9.188 3.83 10.976 8.262 2.104-4.282 5.616-8.262 11.74-8.262 7.718 0 12.506 6.384 12.506 15.997v23.209h-3.124v-22.76c0-8.262-3.639-13.067-9.637-13.067-5.487 0-10.272 4.958-10.272 13.521v22.306h-3.128v-22.983c0-7.961-3.7-12.845-9.508-12.845-5.809 0-10.402 6.009-10.402 13.745v22.081h-3.126v-38.303h-1e-3z" clip-path="url(#au)" fill="#fff"/>
		<defs>
			<rect id="at" x="1" y="1" width="607.94" height="108.14"/>
		</defs>
		<clipPath id="as">
			<use overflow="visible" xlink:href="#at"/>
		</clipPath>
		<path d="m376.13 43.59h3.127v8.562c2.809-5.03 6.955-9.462 13.401-9.462 7.847 0 15.824 7.434 15.824 19.905v0.149c0 12.466-7.978 20.053-15.824 20.053-6.509 0-10.721-4.355-13.401-9.164v20.276h-3.127v-50.319zm28.97 19.301v-0.149c0-10.063-5.935-16.524-12.764-16.524-6.762 0-13.273 6.686-13.273 16.449v0.149c0 9.841 6.51 16.447 13.273 16.447 7.085 1e-3 12.764-6.082 12.764-16.372" clip-path="url(#as)" fill="#fff"/>
		<defs>
			<rect id="ar" x="1" y="1" width="607.94" height="108.14"/>
		</defs>
		<clipPath id="aq">
			<use overflow="visible" xlink:href="#ar"/>
		</clipPath>
		<path d="m415.69 43.59h3.127v10.89c2.553-6.834 7.976-11.791 14.42-11.491v4.057h-0.316c-7.531 0-14.104 6.683-14.104 19.148v15.698h-3.127v-38.302z" clip-path="url(#aq)" fill="#fff"/>
		<defs>
			<rect id="ap" x="1" y="1" width="607.94" height="108.14"/>
		</defs>
		<clipPath id="ao">
			<use overflow="visible" xlink:href="#ap"/>
		</clipPath>
		<path d="m434.83 62.815v-0.149c0-11.116 6.636-19.978 15.441-19.978 9.128 0 14.934 8.712 14.934 20.053 0 0.675 0 0.901-0.065 1.502h-26.992c0.576 9.539 6.381 15.098 12.763 15.098 5.041 0 8.489-2.63 11.168-6.011l2.167 2.253c-3.316 4.208-7.211 7.211-13.464 7.211-8.55 3e-3 -15.952-8.035-15.952-19.979m26.991-1.877c-0.445-7.736-4.211-14.871-11.676-14.871-6.444 0-11.422 6.383-11.998 14.871h23.674z" clip-path="url(#ao)" fill="#fff"/>
		<defs>
			<rect id="an" x="1" y="1" width="607.94" height="108.14"/>
		</defs>
		<clipPath id="al">
			<use overflow="visible" xlink:href="#an"/>
		</clipPath>
		<path d="m468.96 77.088 1.85-2.93c3.574 3.229 7.529 5.03 11.677 5.03 4.404 0 7.851-2.854 7.851-7.282v-0.151c0-4.508-4.084-6.158-8.615-7.662-5.297-1.801-11.164-3.679-11.164-10.513v-0.15c0-6.16 4.401-10.589 10.719-10.589 3.892 0 8.295 1.652 11.549 4.205l-1.659 3.079c-2.999-2.327-6.571-3.83-10.017-3.83-4.469 0-7.404 2.854-7.404 6.684v0.152c0 4.282 4.405 5.859 9.063 7.434 5.229 1.729 10.719 3.981 10.719 10.742v0.15c0 6.834-4.978 11.191-11.229 11.191-4.728-5e-3 -9.896-2.256-13.34-5.56" clip-path="url(#al)" fill="#fff"/>
		<defs>
			<rect id="ak" x="1" y="1" width="607.94" height="108.14"/>
		</defs>
		<clipPath id="aj">
			<use overflow="visible" xlink:href="#ak"/>
		</clipPath>
		<path d="m497.48 77.088 1.853-2.93c3.574 3.229 7.527 5.03 11.678 5.03 4.402 0 7.85-2.854 7.85-7.282v-0.151c0-4.508-4.085-6.158-8.615-7.662-5.297-1.801-11.165-3.679-11.165-10.513v-0.15c0-6.16 4.401-10.589 10.718-10.589 3.895 0 8.295 1.652 11.553 4.205l-1.66 3.079c-3-2.327-6.574-3.83-10.02-3.83-4.468 0-7.399 2.854-7.399 6.684v0.152c0 4.282 4.401 5.859 9.06 7.434 5.231 1.729 10.72 3.981 10.72 10.742v0.15c0 6.834-4.977 11.191-11.229 11.191-4.73-5e-3 -9.898-2.256-13.344-5.56" clip-path="url(#aj)" fill="#fff"/>
		<defs>
			<rect id="ai" x="1" y="1" width="607.94" height="108.14"/>
		</defs>
		<clipPath id="ah">
			<use overflow="visible" xlink:href="#ai"/>
		</clipPath>
		<path d="m529.51 28.569h3.891v5.032h-3.891v-5.032zm0.383 15.021h3.125v38.305h-3.125v-38.305z" clip-path="url(#ah)" fill="#fff"/>
		<defs>
			<rect id="ag" x="1" y="1" width="607.94" height="108.14"/>
		</defs>
		<clipPath id="af">
			<use overflow="visible" xlink:href="#ag"/>
		</clipPath>
		<path d="m540.54 62.891v-0.149c0-10.741 7.082-20.053 16.781-20.053 9.637 0 16.655 9.163 16.655 19.904v0.149c0 10.739-7.083 20.053-16.784 20.053-9.633 2e-3 -16.652-9.162-16.652-19.904m30.053 0v-0.149c0-9.237-5.866-16.598-13.4-16.598-7.719 0-13.27 7.434-13.27 16.448v0.149c0 9.236 5.869 16.6 13.398 16.6 7.722 0 13.272-7.435 13.272-16.45" clip-path="url(#af)" fill="#fff"/>
		<defs>
			<rect id="ae" x="1" y="1" width="607.94" height="108.14"/>
		</defs>
		<clipPath id="ad">
			<use overflow="visible" xlink:href="#ae"/>
		</clipPath>
		<path d="m581.06 43.59h3.127v7.135c2.17-4.507 5.805-8.036 11.739-8.036 8.232 0 13.017 6.609 13.017 15.771v23.435h-3.127v-22.76c0-7.886-3.766-13.067-10.337-13.067-6.382 0-11.293 5.708-11.293 13.669v22.157h-3.128v-38.304h2e-3z" clip-path="url(#ad)" fill="#fff"/>
		<defs>
			<polygon id="ac" points="56.551 101.61 112.1 9.571 1 9.207"/>
		</defs>
		<clipPath id="aa">
			<use overflow="visible" xlink:href="#ac"/>
		</clipPath>
			<radialGradient id="z" cx="2.9902" cy="23.866" r="1.1923" gradientTransform="matrix(51.479 0 0 49.636 -93.156 -1141.4)" gradientUnits="userSpaceOnUse">
			<stop stop-color="#F3F3F3" offset="0"/>
			<stop stop-color="#F3F3F3" offset=".3234"/>
			<stop stop-color="#B4B4B4" offset=".8772"/>
			<stop stop-color="#B4B4B4" offset="1"/>
		</radialGradient>
		<rect x="1" y="9.207" width="111.1" height="92.406" clip-path="url(#aa)" fill="url(#z)"/>
		<defs>
			<rect id="y" x="1" y="1" width="607.94" height="108.14"/>
		</defs>
		<clipPath id="x">
			<use overflow="visible" xlink:href="#y"/>
		</clipPath>
		<polygon points="43.417 54.365 56.551 102.34 1 9.207" clip-path="url(#x)" fill="#B5E2EE"/>
		<defs>
			<rect id="w" x="1" y="1" width="607.94" height="108.14"/>
		</defs>
		<clipPath id="v">
			<use overflow="visible" xlink:href="#w"/>
		</clipPath>
		<polygon points="52.955 24.993 43.417 54.365 1 9.207" clip-path="url(#v)" fill="#68C6DC"/>
		<defs>
			<polygon id="u" points="13.785 1 55.125 19.37 76.641 1"/>
		</defs>
		<clipPath id="t">
			<use overflow="visible" xlink:href="#u"/>
		</clipPath>
			<radialGradient id="s" cx="2.9907" cy="24.117" r="1.1915" gradientTransform="matrix(47.968 0 0 46.25 -126.28 -1107.1)" gradientUnits="userSpaceOnUse">
			<stop stop-color="#02A0C6" offset="0"/>
			<stop stop-color="#02A0C6" offset=".0829"/>
			<stop stop-color="#0D9AC1" offset=".2385"/>
			<stop stop-color="#0789B4" offset=".4372"/>
			<stop stop-color="#08719F" offset=".6591"/>
			<stop stop-color="#045284" offset=".8964"/>
			<stop stop-color="#134576" offset="1"/>
		</radialGradient>
		<rect x="13.785" y="1" width="62.855" height="18.372" clip-path="url(#t)" fill="url(#s)"/>
		<defs>
			<polygon id="r" points="43.418 54.365 56.551 102.34 73.317 74.111 76.641 32.651"/>
		</defs>
		<clipPath id="p">
			<use overflow="visible" xlink:href="#r"/>
		</clipPath>
			<radialGradient id="o" cx="9.9937" cy="22.859" r="1.1923" gradientTransform="matrix(20.381 19.651 -20.381 19.651 305.86 -578.78)" gradientUnits="userSpaceOnUse">
			<stop stop-color="#02A0C6" offset="0"/>
			<stop stop-color="#02A0C6" offset=".0829"/>
			<stop stop-color="#0D9AC1" offset=".2385"/>
			<stop stop-color="#0789B4" offset=".4372"/>
			<stop stop-color="#08719F" offset=".6591"/>
			<stop stop-color="#045284" offset=".8964"/>
			<stop stop-color="#134576" offset="1"/>
		</radialGradient>
		<polygon points="60.029 16.633 112.78 67.495 60.029 118.36 7.279 67.495" clip-path="url(#p)" fill="url(#o)"/>
		<defs>
			<rect id="n" x="1" y="1" width="607.94" height="108.14"/>
		</defs>
		<clipPath id="m">
			<use overflow="visible" xlink:href="#n"/>
		</clipPath>
		<polygon points="81.244 83.864 66.107 109.14 56.314 70.174" clip-path="url(#m)" fill="#B5E2EE"/>
		<defs>
			<rect id="l" x="1" y="1" width="607.94" height="108.14"/>
		</defs>
		<clipPath id="k">
			<use overflow="visible" xlink:href="#l"/>
		</clipPath>
		<polygon points="61.458 42.596 76.641 32.65 74.379 61.382" clip-path="url(#k)" fill="#68C6DC"/>
		<defs>
			<rect id="j" x="1" y="1" width="607.94" height="108.14"/>
		</defs>
		<clipPath id="i">
			<use overflow="visible" xlink:href="#j"/>
		</clipPath>
		<polygon points="87.218 37.75 122.68 14.67 84.823 78.373" clip-path="url(#i)" fill="#68C6DC"/>
		<defs>
			<rect id="h" x="1" y="1" width="607.94" height="108.14"/>
		</defs>
		<clipPath id="g">
			<use overflow="visible" xlink:href="#h"/>
		</clipPath>
		<polygon points="112.1 9.571 52.955 24.994 43.417 54.365" clip-path="url(#g)" fill="#B5E2EE"/>
</svg>
